HIERARCHY
ROOT Hips
{
	OFFSET -0.001795 -0.223333 0.028219
	CHANNELS 6 Xposition Yposition Zposition Zrotation Yrotation Xrotation 
	JOINT LeftUpLeg
	{
		OFFSET 0.069520 -0.091406 -0.006815
		CHANNELS 3 Zrotation Yrotation Xrotation
		JOINT LeftLeg
		{
			OFFSET 0.034277 -0.375199 -0.004496
			CHANNELS 3 Zrotation Yrotation Xrotation
			JOINT LeftFoot
			{
				OFFSET -0.013596 -0.397961 -0.043693
				CHANNELS 3 Zrotation Yrotation Xrotation
				JOINT LeftToe
				{
					OFFSET 0.026358 -0.055791 0.119288
					CHANNELS 3 Zrotation Yrotation Xrotation
					End Site
					{
						OFFSET 0.000000 0.000000 0.000000
					}
				}
			}
		}
	}
	JOINT RightUpLeg
	{
		OFFSET -0.067670 -0.090522 -0.004320
		CHANNELS 3 Zrotation Yrotation Xrotation
		JOINT RightLeg
		{
			OFFSET -0.038290 -0.382569 -0.008850
			CHANNELS 3 Zrotation Yrotation Xrotation
			JOINT RightFoot
			{
				OFFSET 0.015774 -0.398415 -0.042312
				CHANNELS 3 Zrotation Yrotation Xrotation
				JOINT RightToe
				{
					OFFSET -0.025372 -0.048144 0.123348
					CHANNELS 3 Zrotation Yrotation Xrotation
					End Site
					{
						OFFSET 0.000000 0.000000 0.000000
					}
				}
			}
		}
	}
	JOINT Spine
	{
		OFFSET -0.002533 0.108963 -0.026696
		CHANNELS 3 Zrotation Yrotation Xrotation
		JOINT Spine1
		{
			OFFSET 0.005487 0.135180 0.001092
			CHANNELS 3 Zrotation Yrotation Xrotation
			JOINT Spine2
			{
				OFFSET 0.001457 0.052922 0.025425
				CHANNELS 3 Zrotation Yrotation Xrotation
				JOINT Neck
				{
					OFFSET -0.002778 0.213870 -0.042857
					CHANNELS 3 Zrotation Yrotation Xrotation
					JOINT Head
					{
						OFFSET 0.005152 0.064970 0.051349
						CHANNELS 3 Zrotation Yrotation Xrotation
						End Site
						{
							OFFSET 0.000000 0.000000 0.000000
						}
					}
				}
				JOINT LeftShoulder
				{
					OFFSET 0.078845 0.121749 -0.034090
					CHANNELS 3 Zrotation Yrotation Xrotation
					JOINT LeftArm
					{
						OFFSET 0.090977 0.030469 -0.008868
						CHANNELS 3 Zrotation Yrotation Xrotation
						JOINT LeftForeArm
						{
							OFFSET 0.259612 -0.012772 -0.027456
							CHANNELS 3 Zrotation Yrotation Xrotation
							JOINT LeftHand
							{
								OFFSET 0.249234 0.008986 -0.001171
								CHANNELS 3 Zrotation Yrotation Xrotation
								End Site
								{
									OFFSET 0.000000 0.000000 0.000000
								}
							}
						}
					}
				}
				JOINT RightShoulder
				{
					OFFSET -0.081759 0.118833 -0.038615
					CHANNELS 3 Zrotation Yrotation Xrotation
					JOINT RightArm
					{
						OFFSET -0.096012 0.032551 -0.009143
						CHANNELS 3 Zrotation Yrotation Xrotation
						JOINT RightForeArm
						{
							OFFSET -0.253742 -0.013329 -0.021401
							CHANNELS 3 Zrotation Yrotation Xrotation
							JOINT RightHand
							{
								OFFSET -0.255298 0.007772 -0.005559
								CHANNELS 3 Zrotation Yrotation Xrotation
								End Site
								{
									OFFSET 0.000000 0.000000 0.000000
								}
							}
						}
					}
				}
			}
		}
	}
}
MOTION
Frames: 6
Frame Time: 0.050000
0.000000 0.944324 0.000000 -1.461182 2.077245 5.459762 -0.606924 0.123586 1.098724 1.362516 0.272608 -9.284759 -3.326969 -4.673671 4.051535 0.000000 0.000000 0.000000 2.724472 -0.015470 -0.624696 -1.432678 -0.196817 -6.622533 6.263228 12.199305 5.105414 0.000000 0.000000 0.000000 2.988373 0.146481 -3.518167 -0.084879 -0.029722 1.945310 -1.771774 1.087642 5.456046 4.048342 -0.433408 -21.392130 0.000000 0.000000 0.000000 -26.652102 -7.663966 1.204977 -21.740154 6.789197 -3.245036 13.433556 -9.043901 -0.711501 0.000000 0.000000 0.000000 23.540087 4.605409 1.348372 30.313633 -6.604346 -4.456674 -9.957355 18.458756 -0.749671 0.000000 0.000000 0.000000 
-0.000020 0.942860 0.002059 -1.716982 1.801973 5.824117 -0.026880 0.092788 1.012900 0.130528 0.326395 -10.053514 -3.041003 -3.720985 4.781088 0.000000 0.000000 0.000000 2.361839 0.075093 -1.307843 -0.890047 -0.214367 -6.438413 6.771827 13.255079 5.257965 0.000000 0.000000 0.000000 3.633446 0.123812 -3.259025 -0.851916 0.325372 2.878657 -1.949716 1.597925 4.403637 4.611799 -0.336399 -24.325674 0.000000 0.000000 0.000000 -25.007891 -8.934055 1.891683 -23.431658 7.689537 -3.601861 14.405018 -6.949168 -0.604679 0.000000 0.000000 0.000000 24.545152 2.628499 0.213618 30.661317 -7.869472 -4.753540 -11.116653 19.753463 -0.973498 0.000000 0.000000 0.000000 
0.000036 0.941487 0.004153 -1.744542 1.921420 5.605893 0.517825 0.097012 1.321688 -0.514842 0.327909 -9.773620 -2.910364 -3.441218 4.812933 0.000000 0.000000 0.000000 2.545940 -0.014681 -0.607793 -0.898137 -0.233085 -6.824731 6.713673 13.751933 4.459113 0.000000 0.000000 0.000000 4.377849 0.108301 -3.050900 -1.062483 0.474727 0.993055 -2.542866 1.835896 6.284019 5.118466 -0.695571 -23.361880 0.000000 0.000000 0.000000 -23.705047 -9.327076 2.122739 -24.691214 9.339397 -4.156102 13.321963 -7.902187 -0.625701 0.000000 0.000000 0.000000 24.353195 3.963395 1.251820 31.012248 -8.902759 -5.164293 -10.666505 19.952311 -0.909240 0.000000 0.000000 0.000000 
0.000020 0.941012 0.006339 -2.002115 1.670502 5.608227 0.707806 0.119813 1.692343 -0.834159 0.339723 -9.942970 -2.981118 -3.627130 4.756180 0.000000 0.000000 0.000000 2.459864 -0.046028 -0.345339 -0.119894 -0.274189 -6.945194 7.580866 15.666692 4.624991 0.000000 0.000000 0.000000 4.698879 0.103084 -2.996948 -1.522476 0.692907 1.260874 -1.987077 2.227303 5.786283 4.920685 -0.423633 -24.560031 0.000000 0.000000 0.000000 -24.651343 -9.605364 2.170394 -24.322906 10.801623 -4.281659 13.748630 -6.778294 -0.559071 0.000000 0.000000 0.000000 24.688273 3.947530 1.265767 30.282314 -10.849151 -5.398931 -10.825434 20.448675 -0.967535 0.000000 0.000000 0.000000 
0.000113 0.940572 0.008388 -1.859962 1.624157 5.569268 0.438964 0.164957 2.075549 -0.770730 0.338333 -9.913003 -2.926064 -3.793593 4.255068 0.000000 0.000000 0.000000 2.283064 -0.094278 0.100056 -0.189506 -0.285840 -7.292570 7.480044 15.827338 4.145259 0.000000 0.000000 0.000000 4.967281 0.105797 -3.034539 -1.552091 0.701589 1.608681 -2.359912 2.214514 5.011497 5.327309 -0.743522 -23.470658 0.000000 0.000000 0.000000 -25.508452 -9.867803 2.238408 -23.531104 12.056176 -4.273900 13.426862 -7.018578 -0.559462 0.000000 0.000000 0.000000 24.291364 3.860010 1.199080 30.263564 -11.519054 -5.484950 -10.324812 20.806882 -0.910537 0.000000 0.000000 0.000000 
0.000418 0.939781 0.010201 -1.802473 1.505300 5.406871 -0.004673 0.220373 2.452967 -0.202488 0.323529 -9.711522 -2.868713 -4.151328 3.411612 0.000000 0.000000 0.000000 1.677061 -0.124388 0.555729 0.315776 -0.301311 -7.148131 7.579139 16.679924 3.432441 0.000000 0.000000 0.000000 4.996133 0.102766 -2.961467 -1.630034 0.732301 2.160103 -2.188715 1.816896 4.811342 4.856643 -0.445177 -24.410976 0.000000 0.000000 0.000000 -26.103273 -9.728995 2.309562 -23.605000 12.368197 -4.362526 13.330190 -6.729332 -0.521021 0.000000 0.000000 0.000000 23.952357 4.315272 1.299269 29.932145 -11.503603 -5.364007 -9.936821 20.539923 -0.853711 0.000000 0.000000 0.000000 
